<svg width="32" height="33" viewBox="0 0 32 33" fill="none" xmlns="http://www.w3.org/2000/svg">
	<path d="M11.2716 27.8043C9.82238 26.4828 9.3993 23.7062 10.0031 21.6946C11.0501 22.9629 12.5007 23.3646 14.0033 23.5914C16.3229 23.9414 18.601 23.8105 20.7558 22.7529C21.0023 22.6318 21.2302 22.4708 21.4995 22.3077C21.7017 22.8929 21.7543 23.4836 21.6837 24.0849C21.512 25.5491 20.7815 26.6802 19.6196 27.5376C19.1549 27.8806 18.6633 28.1872 18.1835 28.5105C16.7093 29.5044 16.3104 30.6698 16.8644 32.3651C16.8775 32.4064 16.8893 32.4477 16.9191 32.5484C16.1664 32.2125 15.6166 31.7232 15.1977 31.08C14.7552 30.4011 14.5447 29.65 14.5337 28.8374C14.5281 28.4419 14.5281 28.043 14.4748 27.6531C14.3446 26.7026 13.8973 26.2771 13.0546 26.2526C12.1898 26.2274 11.5057 26.7607 11.3243 27.6006C11.3104 27.665 11.2903 27.7287 11.2702 27.8036L11.2716 27.8043Z"
				fill="currentColor" />
	<path d="M3 21.3596C3 21.3596 7.29148 19.2742 11.595 19.2742L14.8396 9.25753C14.9611 8.77311 15.3158 8.44392 15.7162 8.44392C16.1166 8.44392 16.4713 8.77311 16.5928 9.25753L19.8375 19.2742C24.9343 19.2742 28.4324 21.3596 28.4324 21.3596C28.4324 21.3596 21.143 1.55115 21.1287 1.51141C20.9195 0.925767 20.5664 0.548584 20.0902 0.548584H11.343C10.8668 0.548584 10.5279 0.925767 10.3044 1.51141C10.2887 1.5504 3 21.3596 3 21.3596Z"
				fill="currentColor" />
</svg>
