<svg xmlns="http://www.w3.org/2000/svg" fill="none" viewBox="0 0 24 24">
  <path fill="#FFF" d="M8.92 14.04c-3.21 0-6.42 1.57-6.42 1.57L7.96.72c.16-.44.42-.72.77-.72h6.54c.35 0 .62.28.77.72l5.46 14.89s-2.61-1.57-6.42-1.57l-2.43-7.5c-.09-.37-.35-.62-.65-.62-.3 0-.56.25-.65.61l-2.43 7.51Zm-.24 6.4Zm-.95-4.58c-.45 1.5-.13 3.59.95 4.58l.01-.05.03-.1c.13-.63.65-1.03 1.3-1.01.62.02.96.34 1.05 1.05.04.26.04.53.05.8v.09c0 .6.16 1.17.5 1.68.3.48.72.85 1.28 1.1l-.02-.05-.02-.09c-.42-1.27-.12-2.14.98-2.89l.34-.22.74-.5a3.65 3.65 0 0 0 1.54-2.6 3 3 0 0 0-.14-1.33l-.18.12a8.3 8.3 0 0 1-5.42.85c-1.12-.18-2.2-.48-2.99-1.43Z"/>
</svg>